<?xml version="1.0" standalone="no"?>
<!DOCTYPE svg PUBLIC "-//W3C//DTD SVG 20010904//EN"
 "http://www.w3.org/TR/2001/REC-SVG-20010904/DTD/svg10.dtd">
<svg version="1.0" xmlns="http://www.w3.org/2000/svg"
 width="150.000000pt" height="150.000000pt" viewBox="0 0 150.000000 150.000000"
 preserveAspectRatio="xMidYMid meet">

<g transform="translate(0.000000,150.000000) scale(0.100000,-0.100000)"
fill="#000000" stroke="none">
<path d="M0 750 l0 -750 750 0 750 0 0 750 0 750 -750 0 -750 0 0 -750z m637
430 c147 -84 160 -274 27 -388 l-47 -40 67 -117 c36 -65 66 -121 66 -124 0 -6
-132 -3 -136 3 0 0 -44 78 -97 171 l-97 170 74 5 c65 4 79 9 105 34 36 35 46
74 31 121 -21 64 -49 74 -206 77 l-139 3 -32 50 c-18 27 -33 53 -33 57 0 5 82
8 183 8 l182 0 52 -30z m713 -276 c0 -4 -79 -150 -176 -325 l-177 -319 -133
242 -133 243 34 28 c19 15 39 35 44 44 8 16 12 9 156 -250 l32 -59 63 114 c35
62 85 152 112 201 l49 87 65 0 c35 0 64 -3 64 -6z m-296 -35 c31 -37 33 -77 6
-112 -39 -49 -116 -42 -145 14 -22 42 -18 67 14 100 41 41 90 40 125 -2z"/>
</g>
</svg>
